<?xml version="1.0" encoding="utf-8"?>
<!-- Generator: Adobe Illustrator 15.0.2, SVG Export Plug-In . SVG Version: 6.00 Build 0)  -->
<!DOCTYPE svg PUBLIC "-//W3C//DTD SVG 1.1//EN" "http://www.w3.org/Graphics/SVG/1.1/DTD/svg11.dtd">
<svg version="1.1" id="Layer_1" xmlns="http://www.w3.org/2000/svg" xmlns:xlink="http://www.w3.org/1999/xlink" x="0px" y="0px"
	 width="455.758px" height="455.758px" viewBox="0 0 455.758 455.758" enable-background="new 0 0 455.758 455.758"
	 xml:space="preserve">
<path fill="#BCBCBC" d="M450.579,54.298L6.2,145.647c-3.948,0.812-5.421,5.682-2.59,8.549l75.496,76.402
	c1.337,1.357,3.319,1.852,5.137,1.28l138.479-43.559c3.129-0.99,5.298,3.094,2.727,5.137l-100.659,79.922
	c-1.215,0.964-1.922,2.429-1.922,3.982V384.4c0,4.008,4.414,6.436,7.796,4.293l61.152-38.715c2.026-1.281,4.671-0.978,6.352,0.735
	l45.867,46.768c2.322,2.359,6.254,1.916,7.972-0.919L455.944,61.92C458.253,58.127,454.93,53.403,450.579,54.298"/>
</svg>
